<?xml version="1.0" encoding="utf-8"?><svg viewBox="0 0 20 20" xmlns="http://www.w3.org/2000/svg" xmlns:xlink="http://www.w3.org/1999/xlink"><style>:root>svg{display:none}:root>svg:target{display:block}</style><svg fill="none" viewBox="0 0 9 6" id="arrow-down" xmlns="http://www.w3.org/2000/svg"><path d="M1 .712 4.238 3.95 7.475.712" stroke="#303030" stroke-width="2"/></svg><svg fill="none" viewBox="0 0 20 20" id="cart" xmlns="http://www.w3.org/2000/svg"><rect x="2" y="5" width="16" height="13" rx="1" fill="#fff"/><mask id="ba" fill="#fff"><rect x="2" y="5" width="16" height="13" rx="1"/></mask><rect x="2" y="5" width="16" height="13" rx="1" stroke="#303030" stroke-width="3.2" mask="url(#ba)"/><path d="M6 9V6a4 4 0 0 1 8 0v3" stroke="#303030" stroke-width="1.6"/></svg><svg fill="none" viewBox="0 0 20 20" id="chart" xmlns="http://www.w3.org/2000/svg"><path stroke="#303030" stroke-width="2.2" d="M5.1 10v7M10.1 2v15M15.1 5v12"/></svg><svg fill="none" viewBox="0 0 18 16" id="heart" xmlns="http://www.w3.org/2000/svg"><path d="M9 15.5c-.538-.477-1.145-.973-1.788-1.5h-.008c-2.262-1.85-4.827-3.943-5.959-6.452A6.185 6.185 0 0 1 .667 5 4.492 4.492 0 0 1 5.25.5a5.132 5.132 0 0 1 2.773.82c.364.235.692.52.977.847.286-.326.615-.61.977-.848A5.127 5.127 0 0 1 12.75.5 4.492 4.492 0 0 1 17.333 5a6.186 6.186 0 0 1-.578 2.552c-1.132 2.509-3.696 4.601-5.958 6.448l-.009.007c-.643.524-1.25 1.02-1.787 1.5L9 15.5ZM5.25 2.167a2.946 2.946 0 0 0-2.083.826A2.785 2.785 0 0 0 2.333 5c.01.642.155 1.275.427 1.857A10.262 10.262 0 0 0 4.89 9.75c.827.833 1.777 1.64 2.598 2.318l.691.566.146.12.675.554.01-.01.006-.004h.005l.007-.006H9.037l.015-.012.034-.028.006-.005.009-.006h.005l.007-.007.554-.454.145-.12c.234-.19.466-.38.693-.567.822-.678 1.772-1.484 2.598-2.322a10.25 10.25 0 0 0 2.131-2.892A4.531 4.531 0 0 0 15.667 5a2.786 2.786 0 0 0-.834-2 2.946 2.946 0 0 0-2.083-.833 3.323 3.323 0 0 0-2.492 1.092L9 4.71 7.742 3.26A3.323 3.323 0 0 0 5.25 2.167Z" fill="#303030"/></svg><svg fill="none" viewBox="0 0 12 16" id="map" xmlns="http://www.w3.org/2000/svg"><path d="M6 0A5.801 5.801 0 0 0 .205 5.795c0 3.965 5.186 9.786 5.407 10.032.207.23.57.23.776 0 .221-.246 5.407-6.067 5.407-10.032C11.795 2.599 9.195 0 6 0Zm0 8.71a2.919 2.919 0 0 1-2.915-2.915A2.919 2.919 0 0 1 6 2.879a2.919 2.919 0 0 1 2.915 2.916A2.919 2.919 0 0 1 6 8.71Z" fill="#303030"/></svg><svg fill="none" viewBox="0 0 16 16" id="phone" xmlns="http://www.w3.org/2000/svg"><path d="M15.565 11.742 13.332 9.51c-.798-.798-2.153-.479-2.472.558-.24.718-1.037 1.116-1.755.957-1.595-.399-3.748-2.472-4.147-4.147-.239-.718.24-1.515.957-1.754 1.037-.32 1.356-1.675.559-2.472L4.24.419c-.638-.559-1.595-.559-2.153 0L.573 1.934c-1.516 1.595.159 5.821 3.907 9.57 3.748 3.747 7.974 5.502 9.57 3.907l1.514-1.515c.559-.639.559-1.595 0-2.154Z" fill="#303030"/></svg><svg fill="none" viewBox="0 0 20 20" id="search" xmlns="http://www.w3.org/2000/svg"><path fill-rule="evenodd" clip-rule="evenodd" d="M13.2 8.5a4.7 4.7 0 1 1-9.4 0 4.7 4.7 0 0 1 9.4 0Zm-1.138 5.438a6.5 6.5 0 1 1 1.299-1.123l3.912 3.912L16 18l-4-4 .062-.062Z" fill="#303030"/></svg></svg>